<svg xmlns="http://www.w3.org/2000/svg" viewBox="0 0 900 560" role="img" aria-labelledby="title desc">
  <title id="title">Prescription care illustration</title>
  <desc id="desc">A clean pharmacy prescription desk with medicine packs and a secure document.</desc>
  <defs>
    <linearGradient id="bg" x1="0" x2="1" y1="0" y2="1">
      <stop offset="0" stop-color="#e7fbf8"/>
      <stop offset="1" stop-color="#dbeafe"/>
    </linearGradient>
    <linearGradient id="card" x1="0" x2="1" y1="0" y2="1">
      <stop offset="0" stop-color="#ffffff"/>
      <stop offset="1" stop-color="#f5fbff"/>
    </linearGradient>
  </defs>
  <rect width="900" height="560" fill="url(#bg)"/>
  <rect x="75" y="92" width="470" height="365" rx="28" fill="url(#card)" stroke="#b8dfe3" stroke-width="3"/>
  <rect x="125" y="145" width="230" height="26" rx="13" fill="#047c83"/>
  <rect x="125" y="205" width="360" height="18" rx="9" fill="#c7dde6"/>
  <rect x="125" y="250" width="290" height="18" rx="9" fill="#c7dde6"/>
  <rect x="125" y="295" width="325" height="18" rx="9" fill="#c7dde6"/>
  <rect x="125" y="350" width="165" height="78" rx="14" fill="#17a66a"/>
  <path d="M190 370h35v10h-35v35h-10v-35h-35v-10h35v-35h10z" fill="#fff"/>
  <circle cx="646" cy="260" r="132" fill="#ffffff" opacity=".72"/>
  <rect x="595" y="160" width="160" height="220" rx="28" fill="#14213d"/>
  <rect x="616" y="190" width="118" height="145" rx="12" fill="#eaf7f8"/>
  <circle cx="675" cy="358" r="13" fill="#eaf7f8"/>
  <path d="M648 245h54v14h-54zm20-20h14v54h-14z" fill="#047c83"/>
  <rect x="600" y="405" width="215" height="65" rx="20" fill="#ffffff" stroke="#b8dfe3" stroke-width="3"/>
  <circle cx="638" cy="438" r="18" fill="#17a66a"/>
  <path d="M629 438l8 8 18-22" fill="none" stroke="#fff" stroke-width="6" stroke-linecap="round" stroke-linejoin="round"/>
</svg>
